<svg aria-hidden="true" style="position: absolute; width: 0; height: 0; overflow: hidden;" version="1.1" xmlns="http://www.w3.org/2000/svg" xmlns:xlink="http://www.w3.org/1999/xlink">
<defs>

<symbol id="arrows" viewBox="0 0 33 32">
<path d="M13.067 16.473c-0.062-0.062-0.112-0.136-0.146-0.217s-0.051-0.168-0.051-0.256 0.017-0.175 0.051-0.256c0.034-0.081 0.083-0.155 0.146-0.217l3.060-3.053c0.062-0.062 0.112-0.136 0.146-0.217s0.051-0.168 0.051-0.256-0.017-0.175-0.051-0.256c-0.034-0.081-0.083-0.155-0.146-0.217-0.125-0.124-0.294-0.194-0.47-0.194s-0.345 0.070-0.47 0.194l-3.060 3.060c-0.375 0.375-0.585 0.883-0.585 1.413s0.21 1.038 0.585 1.413l3.060 3.060c0.124 0.123 0.292 0.193 0.467 0.193 0.088 0.001 0.175-0.016 0.256-0.049s0.155-0.082 0.217-0.144c0.062-0.062 0.112-0.136 0.146-0.217s0.051-0.168 0.051-0.256-0.017-0.175-0.051-0.256c-0.034-0.081-0.083-0.155-0.146-0.217l-3.060-3.053z"></path>
<path  d="M17.867 16.473c-0.062-0.062-0.112-0.136-0.146-0.217s-0.051-0.168-0.051-0.256 0.017-0.175 0.051-0.256c0.034-0.081 0.083-0.155 0.146-0.217l3.060-3.053c0.062-0.062 0.112-0.136 0.146-0.217s0.051-0.168 0.051-0.256-0.017-0.175-0.051-0.256c-0.034-0.081-0.083-0.155-0.146-0.217-0.125-0.124-0.294-0.194-0.47-0.194s-0.345 0.070-0.47 0.194l-3.060 3.060c-0.375 0.375-0.585 0.883-0.585 1.413s0.21 1.038 0.585 1.413l3.060 3.060c0.124 0.123 0.292 0.193 0.467 0.193 0.088 0.001 0.175-0.016 0.256-0.049s0.155-0.082 0.217-0.144c0.062-0.062 0.112-0.136 0.146-0.217s0.051-0.168 0.051-0.256-0.017-0.175-0.051-0.256c-0.034-0.081-0.083-0.155-0.146-0.217l-3.060-3.053z"></path>
</symbol>
<symbol id="star" viewBox="0 0 32 32">
<path d="M13.826 3.262c0.684-2.106 3.663-2.106 4.348 0l1.932 5.945c0.306 0.942 1.184 1.579 2.174 1.579h6.251c2.214 0 3.135 2.833 1.344 4.135l-5.057 3.674c-0.801 0.582-1.136 1.614-0.83 2.556l1.931 5.945c0.684 2.106-1.726 3.857-3.517 2.555l-5.057-3.674c-0.801-0.582-1.886-0.582-2.687 0l-5.057 3.674c-1.791 1.302-4.202-0.45-3.517-2.555l1.932-5.945c0.306-0.942-0.029-1.973-0.83-2.556l-5.057-3.674c-1.791-1.302-0.871-4.135 1.344-4.135h6.251c0.99 0 1.868-0.638 2.174-1.579l1.932-5.945z"></path>
</symbol>
<symbol id="icon-Star-2" viewBox="0 0 32 32">
<path fill="#eea10c" style="fill: var(--color1, #eea10c)" d="M15.357 1.219c0.273-0.517 1.014-0.517 1.286 0l4.525 8.576c0.105 0.199 0.297 0.339 0.519 0.377l9.555 1.653c0.576 0.1 0.805 0.804 0.398 1.223l-6.758 6.954c-0.157 0.162-0.23 0.387-0.198 0.61l1.38 9.598c0.083 0.579-0.516 1.014-1.041 0.756l-8.702-4.279c-0.202-0.099-0.439-0.099-0.642 0l-8.702 4.279c-0.525 0.258-1.124-0.177-1.041-0.756l1.38-9.598c0.032-0.223-0.041-0.449-0.198-0.61l-6.758-6.954c-0.408-0.419-0.179-1.124 0.398-1.224l9.555-1.653c0.222-0.038 0.414-0.178 0.519-0.377l4.525-8.576z"></path>
</symbol>
<symbol id="icon-Star-3" viewBox="0 0 32 32">
<path fill="#d9d9d9" style="fill: var(--color2, #d9d9d9)" d="M15.41 1.118c0.25-0.474 0.929-0.474 1.179 0l4.148 7.862c0.096 0.183 0.272 0.311 0.476 0.346l8.759 1.515c0.528 0.091 0.738 0.737 0.364 1.122l-6.195 6.374c-0.144 0.148-0.211 0.355-0.182 0.559l1.265 8.798c0.076 0.531-0.473 0.93-0.954 0.693l-7.977-3.922c-0.185-0.091-0.403-0.091-0.588 0l-7.977 3.922c-0.481 0.237-1.030-0.163-0.954-0.693l1.265-8.798c0.029-0.205-0.038-0.411-0.182-0.559l-6.195-6.374c-0.374-0.384-0.164-1.030 0.364-1.122l8.758-1.515c0.204-0.035 0.38-0.163 0.476-0.346l4.148-7.862z"></path>
</symbol>
<symbol id="heart" viewBox="0 0 32 32">
<path  opacity="0.5" stroke="#f8f8f8" style="stroke: var(--color1, #f8f8f8)" stroke-linejoin="round" stroke-linecap="round" stroke-miterlimit="4" stroke-width="2.9091" d="M27.787 6.147c-0.681-0.681-1.49-1.222-2.38-1.591s-1.844-0.559-2.807-0.559-1.917 0.19-2.807 0.559c-0.89 0.369-1.699 0.909-2.38 1.591l-1.413 1.413-1.413-1.413c-1.376-1.376-3.241-2.148-5.187-2.148s-3.811 0.773-5.187 2.148c-1.376 1.376-2.148 3.241-2.148 5.187s0.773 3.811 2.148 5.187l11.787 11.787 11.787-11.787c0.681-0.681 1.222-1.49 1.591-2.38s0.559-1.844 0.559-2.807c0-0.963-0.19-1.917-0.559-2.807s-0.909-1.699-1.591-2.38v0z"></path>
</symbol>
<symbol id="select-down" viewBox="0 0 32 32">
<path stroke-linejoin="round" stroke-linecap="round" stroke-miterlimit="4" stroke-width="3.5556" d="M8 12l8 8 8-8"></path>
</symbol>
<symbol id="search" viewBox="0 0 32 32">
<path d="M28.947 27.054l-4.947-4.907c1.92-2.394 2.85-5.433 2.598-8.492s-1.666-5.905-3.951-7.953-5.269-3.143-8.337-3.059c-3.068 0.084-5.987 1.34-8.157 3.51s-3.426 5.089-3.51 8.157c-0.084 3.068 1.011 6.051 3.059 8.337s4.894 3.7 7.953 3.951c3.059 0.252 6.098-0.678 8.492-2.598l4.907 4.907c0.124 0.125 0.271 0.224 0.434 0.292s0.337 0.102 0.513 0.102c0.176 0 0.35-0.035 0.513-0.102s0.31-0.167 0.434-0.292c0.24-0.249 0.375-0.581 0.375-0.927s-0.134-0.678-0.375-0.927zM14.667 24.001c-1.846 0-3.65-0.547-5.185-1.573s-2.731-2.483-3.438-4.189c-0.706-1.705-0.891-3.582-0.531-5.393s1.249-3.474 2.554-4.779c1.305-1.305 2.968-2.194 4.779-2.554s3.687-0.175 5.392 0.531c1.706 0.706 3.163 1.903 4.189 3.438s1.573 3.339 1.573 5.185c0 2.475-0.983 4.849-2.734 6.6s-4.124 2.734-6.6 2.734z"></path>
</symbol>
<symbol id="fav-icon" viewBox="0 0 37 32">
<path fill="#9bb537" style="fill: var(--color2, #9bb537)" d="M7.325 12.723h23.133v17.735h-23.133v-17.735z"></path>
<path fill="#9bb537" style="fill: var(--color2, #9bb537)" d="M16.578 11.373c0 4.578-3.711 8.289-8.289 8.289s-8.289-3.711-8.289-8.289c0-4.578 3.711-8.289 8.289-8.289s8.289 3.711 8.289 8.289z"></path>
<path fill="#9bb537" style="fill: var(--color2, #9bb537)" d="M26.988 8.289c0 4.578-3.711 8.289-8.289 8.289s-8.289-3.711-8.289-8.289c0-4.578 3.711-8.289 8.289-8.289s8.289 3.711 8.289 8.289z"></path>
<path fill="#9bb537" style="fill: var(--color2, #9bb537)" d="M37.398 11.373c0 4.578-3.711 8.289-8.289 8.289s-8.289-3.711-8.289-8.289c0-4.578 3.711-8.289 8.289-8.289s8.289 3.711 8.289 8.289z"></path>
<path fill="#f8f8f8" style="fill: var(--color1, #f8f8f8)" d="M7.325 29.301h23.133v2.036c0 0.366-0.324 0.663-0.723 0.663h-21.687c-0.399 0-0.723-0.297-0.723-0.663v-2.036z"></path>
<path fill="#f8f8f8" style="fill: var(--color1, #f8f8f8)" d="M14.265 10.36c0-0.611 0.432-1.107 0.964-1.107s0.964 0.495 0.964 1.107v5.112c0 0.611-0.432 1.107-0.964 1.107s-0.964-0.495-0.964-1.107v-5.112z"></path>
<path fill="#f8f8f8" style="fill: var(--color1, #f8f8f8)" d="M17.349 10.36c0-0.611 0.604-1.107 1.349-1.107s1.349 0.495 1.349 1.107v5.112c0 0.611-0.604 1.107-1.349 1.107s-1.349-0.495-1.349-1.107v-5.112z"></path>
<path fill="#f8f8f8" style="fill: var(--color1, #f8f8f8)" d="M21.205 10.36c0-0.611 0.432-1.107 0.964-1.107s0.964 0.495 0.964 1.107v5.112c0 0.611-0.432 1.107-0.964 1.107s-0.964-0.495-0.964-1.107v-5.112z"></path>
<path fill="#050505" style="fill: var(--color3, #050505)" d="M28.184 3.131c0.289-0.030 0.581-0.045 0.878-0.045 3.714 0 6.861 2.413 7.938 5.746-0.289 0.030-0.581 0.045-0.878 0.045-3.714 0-6.861-2.413-7.938-5.746z"></path>
</symbol>
<symbol id="x-black" viewBox="0 0 32 32">
<path stroke-linejoin="round" stroke-linecap="round" stroke-miterlimit="4" stroke-width="2.6667" d="M24 8l-16 16"></path>
<path stroke-linejoin="round" stroke-linecap="round" stroke-miterlimit="4" stroke-width="2.6667" d="M8 8l16 16"></path>
</symbol>
<symbol id="burger" viewBox="0 0 31 32">
<path stroke-linejoin="round" stroke-linecap="round" stroke-miterlimit="4" stroke-width="1.9394" d="M27.151 13.414h-23.273"></path>
<path stroke-linejoin="round" stroke-linecap="round" stroke-miterlimit="4" stroke-width="1.9394" d="M27.151 8.242h-23.273"></path>
<path stroke-linejoin="round" stroke-linecap="round" stroke-miterlimit="4" stroke-width="1.9394" d="M27.151 18.586h-23.273"></path>
<path stroke-linejoin="round" stroke-linecap="round" stroke-miterlimit="4" stroke-width="1.9394" d="M27.151 23.758h-23.273"></path>
</symbol>
<symbol id="basket" viewBox="0 0 31 32">
<path stroke-linejoin="round" stroke-linecap="round" stroke-miterlimit="4" stroke-width="2.0870" d="M5.565 18.783h18.276c1.409 0 2.114 0 2.674-0.263 0.494-0.232 0.909-0.603 1.194-1.069 0.323-0.529 0.401-1.229 0.557-2.629l0.814-7.325c0.048-0.428 0.071-0.642 0.003-0.807-0.060-0.145-0.168-0.266-0.306-0.342-0.157-0.087-0.372-0.087-0.802-0.087h-23.104M1.391 2.087h1.737c0.368 0 0.552 0 0.696 0.070 0.127 0.062 0.232 0.16 0.301 0.283 0.079 0.139 0.090 0.323 0.113 0.691l1.261 20.174c0.023 0.367 0.034 0.551 0.113 0.691 0.069 0.123 0.175 0.221 0.301 0.283 0.144 0.070 0.328 0.070 0.696 0.070h18.433M9.043 29.217h0.014M21.565 29.217h0.014M9.739 29.217c0 0.384-0.311 0.696-0.696 0.696s-0.696-0.311-0.696-0.696c0-0.384 0.311-0.696 0.696-0.696s0.696 0.311 0.696 0.696zM22.261 29.217c0 0.384-0.311 0.696-0.696 0.696s-0.696-0.311-0.696-0.696c0-0.384 0.311-0.696 0.696-0.696s0.696 0.311 0.696 0.696z"></path>
</symbol>
<symbol id="x" viewBox="0 0 32 32">
<path fill="none" stroke="#f8f8f8" style="stroke: var(--color1, #f8f8f8)" stroke-linejoin="round" stroke-linecap="round" stroke-miterlimit="4" stroke-width="2" d="M24 8l-16 16"></path>
<path fill="none" stroke="#f8f8f8" style="stroke: var(--color1, #f8f8f8)" stroke-linejoin="round" stroke-linecap="round" stroke-miterlimit="4" stroke-width="2" d="M8 8l16 16"></path>
</symbol>
</defs>
</svg>
